<?xml version="1.0" encoding="UTF-8"?>
<svg version="1.1" viewBox="0 0 2048 2048" width="128" height="128" xmlns="http://www.w3.org/2000/svg">
<path transform="translate(967,959)" d="m0 0h106l49 2 39 3 32 4 34 6 39 10 37 12 28 11 20 9 23 11 22 12 20 11 21 13 12 8 14 10 11 8 11 9 1 5-5 9-12 15-7 9-13 16-14 18-9 11-9 12-5 6-6-1-11-7-10-8-16-10-17-11-21-12-23-12-19-9-36-14-40-12-27-6-44-6-34-3-23-1h-115l-45 2-34 3-41 7-26 6-25 8-26 9-30 13-24 12-19 11-22 14-12 8-19 14-13 11-11 9-12 11-17 16-7 8-7 7-1 2h-2l-2 4-9 10-14 19-10 13-14 21-13 22-7 12-8 16-8 17-11 27-10 29-7 23-7 36-5 37-4 48-1 17-1 54 700 1 5 2v122l-2 1-31 1-688 1h-100l-8-1-2-2-1-4-1-24v-118l1-48 2-46 4-36 6-36 8-36 7-25 12-35 10-25 11-25 10-21 9-17 14-24 12-19 10-15 13-18 12-16 9-10 9-11 16-17 11-12 19-19 8-7 12-11 11-9 13-11 18-13 17-12 14-9 26-16 18-10 23-12 33-15 47-17 28-8 34-8 41-7 40-4z" fill="#A5FA6C"/>
<path transform="translate(1e3 192)" d="m0 0h39l32 3 24 4 23 6 27 10 27 13 22 13 16 11 25 20 8 7 4 4v2l4 2 7 8 11 12 12 16 12 17 12 21 13 27 9 25 8 28 4 22 2 17 1 15v26l-2 30-4 25-7 27-9 26-17 36-15 24-14 20-9 11-9 10-5 6-8 7-7 7-11 9-14 11-22 14-16 9-16 8-23 10-30 9-27 6-23 3-28 2h-20l-17-1-32-5-17-4-33-11-25-11-21-11-16-10-14-10-17-14-12-11-17-17-9-11-13-16-12-18-13-23-9-19-11-27-8-29-5-26-3-31v-29l3-31 6-31 9-29 8-21 11-23 15-25 13-19 10-13 12-13 22-22 11-9 13-10 20-13 21-12 25-12 28-10 24-6 26-4zm8 128-17 2-17 4-18 6-17 8-20 12-16 13-12 11-8 8-10 13-9 14-14 27-6 17-6 25-2 16v33l4 25 6 21 9 21 10 18 16 21 8 8 7 8 11 9 10 8 18 11 16 8 17 7 23 6 23 3h15l23-3 25-6 20-8 17-9 18-12 16-13 15-15 10-13 9-14 9-16 8-19 6-24 3-21v-39l-3-21-9-30-9-19-10-17-13-17-12-13-11-10-13-10-16-10-16-8-18-7-24-6-23-3z" fill="#A5FA6C"/>
<path transform="translate(1409,1280)" d="m0 0h124l3 3-1 177v12h189l3 1 1 2v28l-1 92-2 2-26 1h-164v190l-1 1-28 1-59 1h-38l-2-4-1-16v-173l-100 1h-88l-3-3v-96l1-27 3-2h169l19-1-1-18v-135l1-30z" fill="#A5FA6C"/>
</svg>
