<?xml version="1.0" encoding="UTF-8"?>
<svg version="1.1" viewBox="0 0 2048 2048" width="128" height="128" xmlns="http://www.w3.org/2000/svg">
<path transform="translate(1419,246)" d="m0 0h52l27 2 30 4 32 7 30 9 28 10 27 12 24 12 24 14 18 12 18 13 13 10 14 12 10 9 8 7 17 17 9 11 7 7 9 11 10 13 16 23 15 25 11 20 14 31 11 29 6 18 9 36 5 26 3 23 2 25v49l-3 39-5 31-9 38-12 36-7 19-12 26-11 21-11 19-10 14-7 11-10 14-11 14-13 15-9 9-7 8-11 11-7 8-691 691-8 7-11 11h-2v2l-11 9-8 6-6 3-6-1-11-7-10-8-10-9-8-7-27-27v-2l-4-2v-2l-4-2v-2l-4-2v-2l-4-2v-2l-4-2v-2l-4-2-644-644-7-8-15-15-7-8-11-12-9-11-15-20-14-21-9-15-9-16-11-21-12-28-9-24-12-41-6-29-5-35-2-31v-35l2-29 3-22 8-41 7-26 13-37 11-25 9-19 13-23 11-17 7-11 8-11 12-16 14-17 12-13 1-2h2l2-4h2l2-4 12-12 8-7 11-10 11-9 18-14 26-17 17-10 22-12 30-14 25-9 24-8 32-8 36-6 28-3 15-1h46l36 3 37 6 27 6 29 9 22 8 23 10 21 10 23 13 24 15 18 13 13 10 15 13 11 9 16 15 48 48v2l4 2 16 17 7 6 7-6 31-31 14-15 30-30 8-7 14-13 11-9 13-11 16-12 21-14 20-12 20-11 28-13 34-13 27-8 36-8 34-5 10-1zm-831 68-35 3-25 4-32 8-25 8-21 8-22 10-19 10-18 11-25 17-16 13-11 9-7 7-8 7-20 20-9 11-10 11-8 11-10 14-10 17-6 10-12 22-12 27-10 27-7 22-5 21-4 24-3 28-1 14v45l3 32 5 29 6 24 12 36 10 24 12 25 10 18 7 10 9 13 12 16 14 17 11 12 5 6h2l2 4 512 512h2l2 4h2l2 4 4 4h2l2 4 6 5 2 3h2l2 4 8 7 139 139 9 11 9 7h4l9-11 13-12 689-689 7-8 9-10 9-11 9-12 13-18 7-12 8-14 12-23 13-31 9-28 6-23 6-32 3-25 1-14v-46l-3-36-5-26-8-32-7-21-9-24-14-30-13-23-16-24-10-13-8-10-12-14-12-13-11-11-8-7-10-9-14-11-16-12-17-11-15-9-26-14-25-11-34-12-27-7-31-6-26-3-17-1h-37l-36 3-26 4-25 6-27 8-24 9-20 9-27 14-16 10-22 15-14 11-10 9-8 7-14 12-64 64-8 7v2h-2l-5 5-1 3-4 2-12 12-14 11-8 5-8 1-10-3-12-8-7-7-8-7-15-15-7-8-48-48-8-7-9-9-8-7-10-9-10-8-18-14-24-16-15-9-26-14-25-11-24-9-28-8-32-7-32-4-17-1z" fill="#F735BE"/>
</svg>
